<svg baseProfile="full" height="28" version="1.1" viewBox="0 0 135 28" width="135" xmlns="http://www.w3.org/2000/svg" xmlns:ev="http://www.w3.org/2001/xml-events" xmlns:xlink="http://www.w3.org/1999/xlink"><defs /><g><path d="M5.607734806629834 27.613259668508285V24.44198895027624H13.7292817679558Q16.049723756906076 24.44198895027624 17.3646408839779 23.06906077348066Q18.67955801104972 21.696132596685082 18.67955801104972 19.76243093922652Q18.67955801104972 18.447513812154696 18.09944751381215 17.383977900552484Q17.519337016574585 16.32044198895027 16.417127071823202 15.701657458563533Q15.314917127071823 15.082872928176794 13.845303867403315 15.082872928176794H5.607734806629834V11.91160220994475H13.303867403314916Q15.23756906077348 11.91160220994475 16.37845303867403 10.88674033149171Q17.519337016574585 9.86187845303867 17.519337016574585 7.928176795580107Q17.519337016574585 5.994475138121544 16.320441988950275 4.969613259668506Q15.121546961325967 3.944751381215468 13.14917127071823 3.944751381215468H5.607734806629834V0.7734806629834239H13.226519337016574Q15.85635359116022 0.7734806629834239 17.616022099447513 1.72099447513812Q19.375690607734807 2.6685082872928163 20.28453038674033 4.215469613259668Q21.193370165745854 5.762430939226519 21.193370165745854 7.618784530386737Q21.193370165745854 9.784530386740329 20.013812154696133 11.408839779005522Q18.834254143646408 13.033149171270717 16.552486187845304 13.961325966850827L16.861878453038674 12.801104972375688Q19.45303867403315 13.729281767955799 20.90331491712707 15.604972375690604Q22.353591160220994 17.48066298342541 22.353591160220994 20.033149171270715Q22.353591160220994 22.160220994475136 21.309392265193367 23.86187845303867Q20.265193370165743 25.56353591160221 18.312154696132595 26.588397790055247Q16.359116022099446 27.613259668508285 13.535911602209945 27.613259668508285ZM3.171270718232044 27.613259668508285V0.7734806629834239H6.806629834254143V27.613259668508285Z M35.03867403314917 27.999999999999996Q32.33149171270718 27.999999999999996 30.16574585635359 26.723756906077345Q27.999999999999996 25.447513812154693 26.723756906077345 23.26243093922652Q25.447513812154693 21.07734806629834 25.447513812154693 18.37016574585635Q25.447513812154693 15.701657458563533 26.723756906077345 13.555248618784528Q27.999999999999996 11.408839779005522 30.16574585635359 10.13259668508287Q32.33149171270718 8.856353591160218 35.03867403314917 8.856353591160218Q37.70718232044199 8.856353591160218 39.892265193370164 10.113259668508285Q42.07734806629834 11.370165745856351 43.353591160220994 13.535911602209943Q44.629834254143645 15.701657458563533 44.629834254143645 18.37016574585635Q44.629834254143645 21.07734806629834 43.353591160220994 23.26243093922652Q42.07734806629834 25.447513812154693 39.892265193370164 26.723756906077345Q37.70718232044199 27.999999999999996 35.03867403314917 27.999999999999996ZM35.03867403314917 24.635359116022098Q36.77900552486187 24.635359116022098 38.132596685082866 23.8232044198895Q39.48618784530386 23.011049723756905 40.25966850828729 21.59944751381215Q41.033149171270715 20.1878453038674 41.033149171270715 18.37016574585635Q41.033149171270715 16.591160220994475 40.24033149171271 15.198895027624308Q39.447513812154696 13.806629834254142 38.113259668508285 13.013812154696131Q36.77900552486187 12.22099447513812 35.03867403314917 12.22099447513812Q33.29834254143646 12.22099447513812 31.944751381215468 13.013812154696131Q30.59116022099447 13.806629834254142 29.817679558011044 15.198895027624308Q29.04419889502762 16.591160220994475 29.04419889502762 18.37016574585635Q29.04419889502762 20.1878453038674 29.817679558011044 21.59944751381215Q30.59116022099447 23.011049723756905 31.944751381215468 23.8232044198895Q33.29834254143646 24.635359116022098 35.03867403314917 24.635359116022098Z M48.53591160220994 27.613259668508285V9.24309392265193H52.016574585635354V27.613259668508285ZM52.016574585635354 17.13259668508287 50.70165745856353 16.552486187845304Q50.70165745856353 13.033149171270717 52.32596685082873 10.944751381215468Q53.950276243093924 8.856353591160218 57.00552486187845 8.856353591160218Q58.39779005524862 8.856353591160218 59.51933701657458 9.339779005524859Q60.64088397790055 9.8232044198895 61.607734806629836 10.944751381215468L59.32596685082873 13.303867403314914Q58.74585635359116 12.685082872928175 58.049723756906076 12.414364640883976Q57.353591160220994 12.143646408839777 56.42541436464088 12.143646408839777Q54.491712707182316 12.143646408839777 53.254143646408835 13.381215469613258Q52.016574585635354 14.618784530386739 52.016574585635354 17.13259668508287Z M73.24861878453038 27.999999999999996Q70.50276243093921 27.999999999999996 68.29834254143645 26.74309392265193Q66.0939226519337 25.486187845303863 64.81767955801104 23.32044198895027Q63.54143646408839 21.154696132596683 63.54143646408839 18.408839779005522Q63.54143646408839 15.701657458563533 64.79834254143645 13.535911602209943Q66.05524861878453 11.370165745856351 68.20165745856353 10.113259668508285Q70.34806629834253 8.856353591160218 73.01657458563535 8.856353591160218Q75.56906077348066 8.856353591160218 77.52209944751381 10.016574585635357Q79.47513812154696 11.176795580110497 80.57734806629834 13.226519337016573Q81.67955801104972 15.27624309392265 81.67955801104972 17.867403314917127Q81.67955801104972 18.254143646408835 81.64088397790056 18.698895027624307Q81.60220994475138 19.14364640883978 81.48618784530386 19.723756906077345H65.97790055248618V16.8232044198895H79.62983425414365L78.35359116022099 17.944751381215468Q78.35359116022099 16.088397790055247 77.69613259668508 14.79281767955801Q77.03867403314916 13.497237569060772 75.83977900552486 12.781767955801104Q74.64088397790054 12.066298342541435 72.93922651933701 12.066298342541435Q71.16022099447514 12.066298342541435 69.80662983425414 12.83977900552486Q68.45303867403314 13.613259668508285 67.71823204419888 15.00552486187845Q66.98342541436463 16.397790055248617 66.98342541436463 18.29281767955801Q66.98342541436463 20.226519337016573 67.75690607734805 21.676795580110493Q68.53038674033148 23.127071823204417 69.96132596685082 23.91988950276243Q71.39226519337016 24.71270718232044 73.24861878453038 24.71270718232044Q74.79558011049723 24.71270718232044 76.09116022099447 24.171270718232044Q77.38674033149171 23.629834254143645 78.31491712707182 22.546961325966848L80.55801104972375 24.828729281767952Q79.24309392265192 26.375690607734803 77.32872928176795 27.187845303867398Q75.41436464088397 27.999999999999996 73.24861878453038 27.999999999999996Z M93.2817679558011 27.999999999999996Q90.76795580110497 27.999999999999996 88.71823204419888 26.74309392265193Q86.66850828729281 25.486187845303863 85.48895027624309 23.32044198895027Q84.30939226519337 21.154696132596683 84.30939226519337 18.447513812154696Q84.30939226519337 15.740331491712706 85.48895027624309 13.574585635359114Q86.66850828729281 11.408839779005522 88.6988950276243 10.13259668508287Q90.7292817679558 8.856353591160218 93.2817679558011 8.856353591160218Q95.37016574585635 8.856353591160218 97.01381215469613 9.726519337016573Q98.65745856353591 10.596685082872927 99.66298342541435 12.124309392265193Q100.66850828729281 13.651933701657457 100.78453038674033 15.662983425414362V21.193370165745854Q100.66850828729281 23.16574585635359 99.68232044198894 24.71270718232044Q98.69613259668508 26.25966850828729 97.05248618784529 27.129834254143645Q95.40883977900552 27.999999999999996 93.2817679558011 27.999999999999996ZM93.86187845303867 24.71270718232044Q96.45303867403315 24.71270718232044 98.03867403314916 22.953038674033145Q99.62430939226519 21.193370165745854 99.62430939226519 18.447513812154696Q99.62430939226519 16.552486187845304 98.90883977900552 15.14088397790055Q98.19337016574585 13.729281767955799 96.87845303867402 12.936464088397788Q95.5635359116022 12.143646408839777 93.82320441988949 12.143646408839777Q92.0828729281768 12.143646408839777 90.74861878453038 12.955801104972373Q89.41436464088397 13.76795580110497 88.66022099447514 15.179558011049721Q87.90607734806629 16.591160220994475 87.90607734806629 18.408839779005522Q87.90607734806629 20.265193370165743 88.66022099447514 21.676795580110493Q89.41436464088397 23.088397790055247 90.76795580110496 23.90055248618784Q92.12154696132596 24.71270718232044 93.86187845303867 24.71270718232044ZM99.39226519337016 27.613259668508285V22.66298342541436L100.04972375690608 18.176795580110493L99.39226519337016 13.729281767955799V9.24309392265193H102.91160220994475V27.613259668508285Z M107.97790055248619 27.613259668508285V0.0H111.45856353591161V27.613259668508285Z M116.60220994475138 27.613259668508285V9.24309392265193H120.08287292817678V27.613259668508285ZM118.34254143646407 5.569060773480661Q117.3756906077348 5.569060773480661 116.75690607734805 4.930939226519335Q116.13812154696132 4.292817679558009 116.13812154696132 3.3259668508287277Q116.13812154696132 2.397790055248617 116.75690607734805 1.759668508287291Q117.3756906077348 1.121546961325965 118.34254143646407 1.121546961325965Q119.30939226519337 1.121546961325965 119.9281767955801 1.759668508287291Q120.54696132596685 2.397790055248617 120.54696132596685 3.3259668508287277Q120.54696132596685 4.292817679558009 119.9281767955801 4.930939226519335Q119.30939226519337 5.569060773480661 118.34254143646407 5.569060773480661Z M131.06629834254144 27.999999999999996Q129.51933701657458 27.999999999999996 128.14640883977899 27.5939226519337Q126.77348066298342 27.1878453038674 125.61325966850828 26.433701657458563Q124.45303867403314 25.67955801104972 123.60220994475138 24.635359116022098L125.8453038674033 22.392265193370164Q126.85082872928176 23.629834254143645 128.1657458563536 24.229281767955797Q129.48066298342542 24.828729281767952 131.1049723756906 24.828729281767952Q132.7292817679558 24.828729281767952 133.61878453038673 24.267955801104968Q134.50828729281767 23.707182320441987 134.50828729281767 22.70165745856353Q134.50828729281767 21.696132596685082 133.792817679558 21.135359116022098Q133.07734806629833 20.574585635359114 131.95580110497235 20.207182320441987Q130.8342541436464 19.83977900552486 129.57734806629833 19.472375690607734Q128.32044198895028 19.104972375690608 127.1988950276243 18.524861878453038Q126.07734806629834 17.944751381215468 125.36187845303867 16.939226519337016Q124.646408839779 15.933701657458561 124.646408839779 14.270718232044196Q124.646408839779 12.607734806629832 125.4585635359116 11.389502762430936Q126.27071823204419 10.17127071823204 127.72099447513813 9.51381215469613Q129.17127071823205 8.856353591160218 131.22099447513813 8.856353591160218Q133.3867403314917 8.856353591160218 135.06906077348066 9.610497237569058Q136.75138121546962 10.364640883977899 137.8342541436464 11.872928176795577L135.59116022099448 14.11602209944751Q134.81767955801104 13.110497237569058 133.67679558011048 12.569060773480661Q132.53591160220995 12.027624309392262 131.1049723756906 12.027624309392262Q129.5966850828729 12.027624309392262 128.8038674033149 12.549723756906076Q128.0110497237569 13.071823204419887 128.0110497237569 13.999999999999998Q128.0110497237569 14.928176795580109 128.70718232044197 15.430939226519335Q129.40331491712706 15.933701657458561 130.54419889502762 16.281767955801104Q131.68508287292818 16.629834254143645 132.92265193370167 16.997237569060772Q134.16022099447514 17.3646408839779 135.28176795580112 17.98342541436464Q136.40331491712706 18.60220994475138 137.11878453038673 19.646408839779003Q137.8342541436464 20.690607734806626 137.8342541436464 22.392265193370164Q137.8342541436464 24.98342541436464 135.99723756906076 26.491712707182316Q134.16022099447514 27.999999999999996 131.06629834254144 27.999999999999996Z " fill="rgb(0,0,0)" transform="translate(-3.171270718232044, 0)" /></g></svg>